<?xml version="1.0" standalone="no"?><!DOCTYPE svg PUBLIC "-//W3C//DTD SVG 1.1//EN" "http://www.w3.org/Graphics/SVG/1.1/DTD/svg11.dtd"><svg t="1690602475245" class="icon" viewBox="0 0 1024 1024" version="1.1" xmlns="http://www.w3.org/2000/svg" p-id="12029" xmlns:xlink="http://www.w3.org/1999/xlink" width="200" height="200"><path d="M251.731946 22.365357c0.835934 23.360347-6.149268 39.620981-20.955605 48.781901l-75.348571-0.458046c-36.792547-12.893996-42.59828-33.506067-17.405749-61.836213 2.530704-2.816983 5.862989-4.752228 9.504455-5.496552 39.082777-8.015805 73.825568-1.671868 104.20547 19.00891z" fill="#1D4D59" p-id="12030"></path><path d="M251.731946 22.365357c133.749439-1.030604 216.197724 99.854034 282.843421 208.29643 80.845123 131.459209 189.516543-11.565662 283.53049-32.177733 106.953747-23.474859 96.762223 71.340668 47.751298 124.130472l-49.239948-17.405749c-32.750291-22.902301-64.847866-19.810491-96.304177 9.275432l-20.039513 7.672271-31.948711 17.634772-20.039513 5.725576-31.032619 6.183621-25.765088-5.725575-28.169831-9.046409-25.765089-11.451151-31.490664-28.627877-31.490664-37.216239-31.490665-42.941815c-8.622716-13.352042-20.234183-22.741985-34.811498-28.169831l-25.765088-12.367242-31.490665-4.809483-25.765089-2.862788-28.627876 2.862788-40.079027 5.725575c-31.032618 6.756179-26.108623-98.937941-25.765089-105.923144 14.806338-9.160921 21.79154-25.421554 20.955605-48.781901z" fill="#664125" p-id="12031"></path><path d="M230.776341 71.147258c-0.343535 6.985202-5.267529 112.679322 25.765089 105.923144a28.8569 28.8569 0 0 0-12.13822 5.038506c-2.679569 1.923793-4.122414 5.588162-3.77888 9.618967l72.714807 732.072059-68.248858 2.404742c-25.421554-243.680485-54.965523-488.391574-71.798715-732.759129a834.720174 834.720174 0 0 0-17.863794-122.756335l75.348571 0.458046z" fill="#91613F" p-id="12032"></path><path d="M325.248333 168.482039c-1.981049 18.024111-0.99625 43.628884 2.9773 76.837221 19.547114 162.148293 42.827303 388.995587 69.852018 680.541882l-24.161927 0.343534-77.295267-754.859849 28.627876-2.862788z" fill="#FEC129" p-id="12033"></path><path d="M325.248333 168.482039l25.765089 2.862788c24.047416 229.79024 48.472721 459.534675 73.287364 689.244756a946.895646 946.895646 0 0 0 7.328737 54.621989l-11.909197 11.909196c-10.454901 0.99625-17.669125 0.572558-21.642675-1.259626-27.024715-291.546295-50.304905-518.393589-69.852018-680.541882-3.973549-33.208337-4.958348-58.81311-2.9773-76.837221zM296.620457 171.344827l77.295267 754.859849-60.576587-2.404742-72.714807-732.072059c-0.343535-4.030805 1.09931-7.695173 3.77888-9.618967 3.435345-2.519253 7.477601-4.191121 12.13822-5.038506l40.079027-5.725575z" fill="#FFFFFF" p-id="12034"></path><path d="M351.013422 171.344827l31.490665 4.809483c-2.29023 20.314341-1.568808 45.506873 2.175718 75.577594 23.051166 185.439933 44.430464 398.958088 64.126444 640.577366-1.752026 10.993105-7.477601 18.631022-17.176726 22.902302a946.895646 946.895646 0 0 1-7.328737-54.621989c-24.814643-229.710082-49.239948-459.454517-73.287364-689.244756z" fill="#FEC129" p-id="12035"></path><path d="M382.504087 176.15431l25.765088 12.367242a46129.402961 46129.402961 0 0 1 66.531186 640.119321c0.309181 2.748276 1.981049 6.000403 5.038506 9.733478a122.527312 122.527312 0 0 1-31.032618 53.934919c-19.695979-241.619278-41.075277-455.137433-64.126444-640.577366-3.744526-30.070722-4.465949-55.263253-2.175718-75.577594z" fill="#FFFFFF" p-id="12036"></path><path d="M408.269175 188.521552c14.577315 5.427845 26.188781 14.817789 34.811498 28.169831a39.792748 39.792748 0 0 0-4.122414 23.016813c21.986209 190.627305 42.449415 381.437828 61.378168 572.44302l-20.49756 26.223135c-3.057457-3.733075-4.729325-6.985202-5.038506-9.733478a46129.402961 46129.402961 0 0 0-66.531186-640.119321z" fill="#FEC129" p-id="12037"></path><path d="M443.080673 216.691383l31.490665 42.941815 49.697993 487.360971c0 0.229023 1.339785 3.710173 4.007903 10.420547a11.451151 11.451151 0 0 1 0.687069 6.06911l-28.627876 48.66739a35908.460893 35908.460893 0 0 0-61.378168-572.44302c-0.916092-8.16467 0.458046-15.836941 4.122414-23.016813z" fill="#FFFFFF" p-id="12038"></path><path d="M474.571338 259.633198l31.490664 37.216239-1.259627 1.832185a5.324785 5.324785 0 0 0-1.145115 3.893391l44.888511 429.876194-19.581468 31.032619a11.451151 11.451151 0 0 0-0.687069-6.06911c-2.668118-6.710374-4.007903-10.191524-4.007903-10.420547l-49.697993-487.360971z" fill="#FEC129" p-id="12039"></path><path d="M816.617207 305.208777l-73.401876 115.198576c-8.130317-26.337646-9.275432-89.089952-22.902301-105.923144 31.456311-29.085923 63.553886-32.177733 96.304177-9.275432zM506.062002 296.849437l31.490664 28.627877 37.21624 363.574033-26.223135 43.39986-44.888511-429.876194a5.324785 5.324785 0 0 1 1.145115-3.893391l1.259627-1.832185z" fill="#FFFFFF" p-id="12040"></path><path d="M816.617207 305.208777l49.239948 17.405749c-94.437639 191.692262-174.05749 348.504318-238.871003 470.413268-27.56292 51.759201-48.289502 96.727869-62.179747 134.894555l-145.086079-0.801581 11.909197-11.909196c9.699125-4.271279 15.4247-11.909197 17.176726-22.902302a122.527312 122.527312 0 0 0 31.032618-53.934919l20.49756-26.223135 28.627876-48.66739 19.581468-31.032619 26.223135-43.39986 20.039513-28.627877 28.627877-51.530178 25.307043-33.895406 23.360347-43.399861c11.829039-8.313535 18.699729-18.699729 20.612071-31.147129 13.890246-12.825289 22.29539-27.253739 25.192532-43.28535a98.376835 98.376835 0 0 0 25.307042-36.758193l73.401876-115.198576z" fill="#91613F" p-id="12041"></path><path d="M720.31303 314.484209c13.626869 16.833191 14.771984 79.585497 22.902301 105.923144a98.376835 98.376835 0 0 1-25.307042 36.758193l-17.634772-135.009066 20.039513-7.672271z" fill="#FEC129" p-id="12042"></path><path d="M700.273517 322.15648l17.634772 135.009066c-2.897141 16.031611-11.302286 30.460061-25.192532 43.28535l-24.390951-160.659644 31.948711-17.634772z" fill="#FFFFFF" p-id="12043"></path><path d="M537.552666 325.477314l25.765089 11.451151 31.490664 323.495005-20.039513 28.627877z" fill="#FEC129" p-id="12044"></path><path d="M563.317755 336.928465l28.169831 9.046409 31.94871 262.918418-28.627877 51.530178z" fill="#FFFFFF" p-id="12045"></path><path d="M668.324806 339.791252l24.390951 160.659644c-1.912342 12.447401-8.783033 22.833594-20.612071 31.147129a1464.14412 1464.14412 0 0 1-23.818393-186.081197l20.039513-5.725576zM591.487586 345.974874l25.765088 5.725575c2.633765 25.421554 20.383048 217.800885 31.490665 223.297437l-25.307043 33.895406-31.94871-262.918418z" fill="#FEC129" p-id="12046"></path><path d="M648.285293 345.516828a1464.14412 1464.14412 0 0 0 23.818393 186.081197l-23.360347 43.399861c-11.107616-5.496552-28.8569-197.875883-31.490665-223.297437l31.032619-6.183621z" fill="#FFFFFF" p-id="12047"></path><path d="M313.339137 923.799934l60.576587 2.404742 24.161927-0.343534c3.973549 1.832184 11.187774 2.255877 21.642675 1.259626l145.086079 0.801581c40.388208 16.42095 54.312807 46.606183 41.796699 90.578601a7.729527 7.729527 0 0 1-7.443248 5.496553l-387.621448-0.114512a7.672271 7.672271 0 0 1-7.328737-5.496552c-12.825289-44.270148 0.801581-75.005037 40.880608-92.181763l68.248858-2.404742z" fill="#1D4D59" p-id="12048"></path></svg>